<svg xmlns="http://www.w3.org/2000/svg" viewBox="0 0 220 260" role="img" aria-labelledby="title desc">
  <title id="title">Addy portrait</title>
  <desc id="desc">Stylized portrait of Addy as a round-cheeked toddler with puffs, an oversized chaos hoodie, and mischievous energy.</desc>
  <defs>
    <linearGradient id="bg" x1="0" y1="0" x2="0" y2="1">
      <stop offset="0" stop-color="#7b3f3b"/>
      <stop offset="0.58" stop-color="#ef7d64"/>
      <stop offset="1" stop-color="#ffd7c8"/>
    </linearGradient>
    <linearGradient id="hoodie" x1="0" y1="0" x2="1" y2="1">
      <stop offset="0" stop-color="#ef7d64"/>
      <stop offset="1" stop-color="#c55d49"/>
    </linearGradient>
  </defs>
  <rect width="220" height="260" rx="28" fill="#4a2323"/>
  <rect x="10" y="10" width="200" height="240" rx="22" fill="url(#bg)"/>
  <circle cx="44" cy="52" r="22" fill="#ffe6a5" opacity="0.34"/>
  <path d="M37 42l8 11M55 33l-2 12M165 39l13 4M173 58l9-8" stroke="#ffd7c8" stroke-width="4" stroke-linecap="round" opacity="0.82"/>
  <path d="M22 216c31-22 63-35 97-35 38 0 68 11 87 28v40H22z" fill="#f0a78f" opacity="0.56"/>
  <path d="M50 226c9-34 23-56 60-69 33 13 46 35 56 69z" fill="#b75445" opacity="0.88"/>
  <path d="M64 226c3-22 8-38 19-49 7-8 15-11 27-11 11 0 19 3 26 11 11 11 16 27 19 49z" fill="#aa4f42"/>
  <path d="M68 178c11-12 24-18 42-18 17 0 31 6 42 18l-8 46H76z" fill="url(#hoodie)"/>
  <rect x="89" y="176" width="42" height="24" rx="8" fill="#ffd7c8"/>
  <path d="M98 191h24" stroke="#bf5f50" stroke-width="3.2" stroke-linecap="round"/>
  <path d="M80 184c-5 7-8 15-10 25l12 4c2-10 5-17 10-24z" fill="#d26d59"/>
  <path d="M140 184c5 7 8 15 10 25l-12 4c-2-10-5-17-10-24z" fill="#d26d59"/>
  <path d="M100 151c2-7 6-10 11-10 6 0 10 3 11 10v11H100z" fill="#da9c7c"/>
  <ellipse cx="84" cy="108" rx="5.5" ry="8" fill="#f2c7ab"/>
  <ellipse cx="136" cy="108" rx="5.5" ry="8" fill="#f2c7ab"/>
  <circle cx="110" cy="104" r="41" fill="#f2c7ab"/>
  <ellipse cx="88" cy="127" rx="11" ry="8" fill="#f4b49a" opacity="0.24"/>
  <ellipse cx="132" cy="127" rx="11" ry="8" fill="#f4b49a" opacity="0.24"/>
  <circle cx="80" cy="79" r="15" fill="#8d6447"/>
  <circle cx="142" cy="79" r="15" fill="#8d6447"/>
  <path d="M76 106c4-29 21-46 37-46 22 0 39 18 43 43l-11 4c-4-16-16-27-31-27-14 0-28 10-34 26z" fill="#8d6447"/>
  <path d="M88 82c6-6 14-9 23-9 9 0 17 3 23 8" fill="none" stroke="#a67b5b" stroke-width="8" stroke-linecap="round"/>
  <ellipse cx="95" cy="107" rx="6.4" ry="5.4" fill="#fffdfb"/>
  <ellipse cx="125" cy="107" rx="6.4" ry="5.4" fill="#fffdfb"/>
  <circle cx="95" cy="107" r="3.25" fill="#34241d"/>
  <circle cx="125" cy="107" r="3.25" fill="#34241d"/>
  <circle cx="96.6" cy="105.7" r="1.1" fill="#ffffff" opacity="0.9"/>
  <circle cx="126.6" cy="105.7" r="1.1" fill="#ffffff" opacity="0.9"/>
  <path d="M90 95c3-2 7-3 10-2M120 95c3-1 7 0 10 2" fill="none" stroke="#241614" stroke-width="2.1" stroke-linecap="round"/>
  <path d="M109 113c1 6 2 10 1 15" fill="none" stroke="#d79a80" stroke-width="2.3" stroke-linecap="round"/>
  <path d="M97 132c7 5 15 5 22 0" fill="none" stroke="#a55f48" stroke-width="3.7" stroke-linecap="round"/>
  <path d="M91 161c5 6 11 9 19 9 9 0 16-3 21-9" fill="none" stroke="#d8a387" stroke-width="4.1" stroke-linecap="round"/>
</svg>
