<svg xmlns="http://www.w3.org/2000/svg" viewBox="0 0 220 260" role="img" aria-labelledby="title desc">
  <title id="title">Addy portrait</title>
  <desc id="desc">Generic illustrated portrait of Addy as a three year old with round cheeks, tiny puffs, and a playful grin.</desc>
  <defs>
    <linearGradient id="bg" x1="0" y1="0" x2="0" y2="1">
      <stop offset="0" stop-color="#7a3242"/>
      <stop offset="1" stop-color="#ef9f63"/>
    </linearGradient>
    <linearGradient id="shirt" x1="0" y1="0" x2="1" y2="1">
      <stop offset="0" stop-color="#f08d71"/>
      <stop offset="1" stop-color="#c55d49"/>
    </linearGradient>
  </defs>
  <rect width="220" height="260" rx="28" fill="#2b161e"/>
  <rect x="10" y="10" width="200" height="240" rx="22" fill="url(#bg)"/>
  <circle cx="46" cy="48" r="24" fill="#ffffff" opacity="0.12"/>
  <path d="M56 226c8-41 26-66 54-66 28 0 46 25 54 66z" fill="#8f463c" opacity="0.7"/>
  <path d="M64 176c11-16 26-24 46-24s35 8 46 24l-8 50H72z" fill="url(#shirt)"/>
  <path d="M91 174h38l8 52H83z" fill="#ffd7c8" opacity="0.92"/>
  <path d="M96 148c3-8 8-12 14-12 7 0 12 4 14 12v13H96z" fill="#ce8f6f"/>
  <circle cx="110" cy="104" r="38" fill="#efc1a4"/>
  <path d="M82 95c2-25 14-41 28-41 15 0 27 15 29 40l-8 4c-4-10-11-17-21-20-10 3-17 10-21 20z" fill="#7a533b"/>
  <circle cx="90" cy="63" r="8" fill="#7a533b"/>
  <circle cx="130" cy="63" r="8" fill="#7a533b"/>
  <ellipse cx="94" cy="121" rx="11" ry="8" fill="#f2b195" opacity="0.16"/>
  <ellipse cx="126" cy="121" rx="11" ry="8" fill="#f2b195" opacity="0.16"/>
  <path d="M92 92c3-2 6-2 9 0M119 92c3-2 6-2 9 0" fill="none" stroke="#2c1d17" stroke-width="2" stroke-linecap="round"/>
  <circle cx="96" cy="105" r="3.6" fill="#34241d"/>
  <circle cx="124" cy="105" r="3.6" fill="#34241d"/>
  <circle cx="97.2" cy="103.8" r="1" fill="#ffffff" opacity="0.9"/>
  <circle cx="125.2" cy="103.8" r="1" fill="#ffffff" opacity="0.9"/>
  <path d="M110 109c0 4 0 7-1 10" fill="none" stroke="#d09372" stroke-width="1.9" stroke-linecap="round"/>
  <path d="M98 127c4 5 9 7 12 7 5 0 10-2 14-7" fill="none" stroke="#a35f4a" stroke-width="3.2" stroke-linecap="round"/>
</svg>
