<svg xmlns="http://www.w3.org/2000/svg" viewBox="0 0 160 160" role="img" aria-labelledby="title desc">
  <title id="title">Addy portrait</title>
  <desc id="desc">A tiny fall-themed portrait that matches the family's warm coral and denim palette.</desc>
  <defs>
    <linearGradient id="sky" x1="0" y1="0" x2="0" y2="1">
      <stop offset="0" stop-color="#9ca27d"/>
      <stop offset="0.62" stop-color="#d9a051"/>
      <stop offset="1" stop-color="#76573d"/>
    </linearGradient>
  </defs>
  <rect width="160" height="160" rx="18" fill="#3a2b24"/>
  <rect x="8" y="8" width="144" height="144" rx="14" fill="url(#sky)"/>
  <circle cx="38" cy="42" r="19" fill="#8aa15f" opacity="0.42"/>
  <circle cx="120" cy="38" r="25" fill="#dfa54f" opacity="0.52"/>
  <rect x="8" y="118" width="144" height="34" fill="#70814d"/>
  <path d="M34 146c8-28 23-44 46-44 26 0 41 16 46 44z" fill="#ef7d64"/>
  <path d="M57 107c5-7 13-12 23-12 10 0 18 4 24 12l-8 39H64z" fill="#f08d76"/>
  <path d="M67 98h26l5 14H62z" fill="#f6d3bf"/>
  <circle cx="58" cy="45" r="11" fill="#8f6d4a"/>
  <circle cx="103" cy="45" r="11" fill="#8f6d4a"/>
  <circle cx="80" cy="63" r="28" fill="#f1c9ab"/>
  <path d="M55 61c3-19 15-31 28-31 15 0 27 10 30 29l-8 1c-3-10-10-18-22-18-11 0-18 7-21 19z" fill="#8f6d4a"/>
  <path d="M61 39c5-4 11-7 19-7 7 0 14 2 19 7" fill="none" stroke="#a88257" stroke-width="7" stroke-linecap="round"/>
  <circle cx="70" cy="63" r="3.2" fill="#34241c"/>
  <circle cx="91" cy="63" r="3.2" fill="#34241c"/>
  <path d="M70 78c6 5 13 5 18 0" fill="none" stroke="#9f6048" stroke-width="3.4" stroke-linecap="round"/>
  <path d="M64 107c4 5 9 8 16 8 6 0 12-2 16-8" fill="none" stroke="#dfbaa1" stroke-width="4" stroke-linecap="round"/>
</svg>
