<svg xmlns="http://www.w3.org/2000/svg" viewBox="0 0 220 260" role="img" aria-labelledby="title desc">
  <title id="title">Ariel portrait</title>
  <desc id="desc">Generic illustrated portrait of Ariel as a sixteen year old girl with long brown hair and a friendly smile.</desc>
  <defs>
    <linearGradient id="bg" x1="0" y1="0" x2="0" y2="1">
      <stop offset="0" stop-color="#2a3554"/>
      <stop offset="1" stop-color="#b18a57"/>
    </linearGradient>
    <linearGradient id="shirt" x1="0" y1="0" x2="1" y2="1">
      <stop offset="0" stop-color="#7b90be"/>
      <stop offset="1" stop-color="#394d78"/>
    </linearGradient>
  </defs>
  <rect width="220" height="260" rx="28" fill="#121c2b"/>
  <rect x="10" y="10" width="200" height="240" rx="22" fill="url(#bg)"/>
  <circle cx="44" cy="46" r="22" fill="#ffffff" opacity="0.1"/>
  <path d="M52 226c8-44 27-72 58-72 30 0 49 28 58 72z" fill="#1f2738" opacity="0.8"/>
  <path d="M63 171c12-18 28-27 47-27s35 9 47 27l-9 55H72z" fill="url(#shirt)"/>
  <path d="M92 144c3-9 8-13 18-13 8 0 13 4 16 13v14H92z" fill="#cf8f6f"/>
  <ellipse cx="110" cy="98" rx="33" ry="41" fill="#efc4aa"/>
  <path d="M74 90c2-34 18-56 36-56 20 0 37 22 38 56l-9 4c-6-18-16-31-29-38-13 6-23 19-27 38z" fill="#4b342a"/>
  <path d="M72 98c5 36 16 61 29 78h18c13-17 24-42 29-78l-10-5c-8 21-17 34-28 40-11-6-20-19-28-40z" fill="#4b342a"/>
  <ellipse cx="92" cy="120" rx="10" ry="7" fill="#f1b59b" opacity="0.14"/>
  <ellipse cx="128" cy="120" rx="10" ry="7" fill="#f1b59b" opacity="0.14"/>
  <path d="M91 88c4-3 8-3 12-1M118 88c4-2 8-2 12 1" fill="none" stroke="#241713" stroke-width="2.2" stroke-linecap="round"/>
  <circle cx="94" cy="101" r="3" fill="#31231c"/>
  <circle cx="126" cy="101" r="3" fill="#31231c"/>
  <circle cx="95.1" cy="99.9" r="0.9" fill="#ffffff" opacity="0.88"/>
  <circle cx="127.1" cy="99.9" r="0.9" fill="#ffffff" opacity="0.88"/>
  <path d="M109 105c1 5 1 10 0 14" fill="none" stroke="#d19a79" stroke-width="2" stroke-linecap="round"/>
  <path d="M94 123c5 5 11 6 16 6 5 0 11-1 16-6" fill="none" stroke="#a45f4a" stroke-width="3" stroke-linecap="round"/>
</svg>
