<svg xmlns="http://www.w3.org/2000/svg" viewBox="0 0 220 260" role="img" aria-labelledby="title desc">
  <title id="title">David portrait</title>
  <desc id="desc">Generic illustrated portrait of David as a twelve year old boy with light brown hair and a sporty green jersey.</desc>
  <defs>
    <linearGradient id="bg" x1="0" y1="0" x2="0" y2="1">
      <stop offset="0" stop-color="#24423b"/>
      <stop offset="1" stop-color="#7db279"/>
    </linearGradient>
    <linearGradient id="shirt" x1="0" y1="0" x2="1" y2="1">
      <stop offset="0" stop-color="#378c6d"/>
      <stop offset="1" stop-color="#144c3c"/>
    </linearGradient>
  </defs>
  <rect width="220" height="260" rx="28" fill="#0e1c1a"/>
  <rect x="10" y="10" width="200" height="240" rx="22" fill="url(#bg)"/>
  <circle cx="48" cy="46" r="22" fill="#ffffff" opacity="0.1"/>
  <path d="M54 226c8-44 27-72 56-72 29 0 48 28 56 72z" fill="#16342d" opacity="0.8"/>
  <path d="M62 171c12-18 28-27 48-27s36 9 48 27l-10 55H72z" fill="url(#shirt)"/>
  <path d="M71 181h78" stroke="#f1d47f" stroke-width="10" stroke-linecap="round"/>
  <path d="M94 144c3-9 8-13 16-13 8 0 13 4 16 13v14H94z" fill="#d09a79"/>
  <ellipse cx="110" cy="100" rx="34" ry="40" fill="#efc7a7"/>
  <path d="M79 89c2-30 16-49 31-49 17 0 31 18 34 47l-8 4c-6-13-14-22-26-27-12 4-22 13-29 27z" fill="#9b7a58"/>
  <path d="M88 69c6-7 14-10 23-10 9 0 17 3 23 10" fill="none" stroke="#b08d67" stroke-width="7" stroke-linecap="round"/>
  <ellipse cx="92" cy="121" rx="10" ry="7" fill="#f1b59b" opacity="0.14"/>
  <ellipse cx="128" cy="121" rx="10" ry="7" fill="#f1b59b" opacity="0.14"/>
  <path d="M92 90c3-2 7-2 10 0M118 90c3-2 7-2 10 0" fill="none" stroke="#2b2119" stroke-width="2.1" stroke-linecap="round"/>
  <circle cx="95" cy="103" r="3" fill="#30231e"/>
  <circle cx="123" cy="103" r="3" fill="#30231e"/>
  <circle cx="96.1" cy="101.9" r="0.8" fill="#ffffff" opacity="0.88"/>
  <circle cx="124.1" cy="101.9" r="0.8" fill="#ffffff" opacity="0.88"/>
  <path d="M109 107c1 4 1 8 0 12" fill="none" stroke="#cf9473" stroke-width="2" stroke-linecap="round"/>
  <path d="M95 125c4 4 9 5 15 5 5 0 10-1 15-5" fill="none" stroke="#a2604d" stroke-width="3" stroke-linecap="round"/>
</svg>
