<svg xmlns="http://www.w3.org/2000/svg" viewBox="0 0 220 260" role="img" aria-labelledby="title desc">
  <title id="title">Drea portrait</title>
  <desc id="desc">Generic illustrated portrait of Drea as a mom with dark hair, a white headband, and a teal athletic jacket.</desc>
  <defs>
    <linearGradient id="bg" x1="0" y1="0" x2="0" y2="1">
      <stop offset="0" stop-color="#16384d"/>
      <stop offset="1" stop-color="#4f9f97"/>
    </linearGradient>
    <linearGradient id="shirt" x1="0" y1="0" x2="1" y2="1">
      <stop offset="0" stop-color="#3f8a92"/>
      <stop offset="1" stop-color="#173844"/>
    </linearGradient>
  </defs>
  <rect width="220" height="260" rx="28" fill="#0b1d2a"/>
  <rect x="10" y="10" width="200" height="240" rx="22" fill="url(#bg)"/>
  <circle cx="44" cy="48" r="24" fill="#ffffff" opacity="0.12"/>
  <path d="M54 226c8-44 27-72 56-72 29 0 48 28 56 72z" fill="#173844" opacity="0.75"/>
  <path d="M62 171c12-18 28-27 48-27s36 9 48 27l-10 55H72z" fill="url(#shirt)"/>
  <path d="M86 171c8 8 16 12 24 12 9 0 17-4 24-12l8 8c-9 11-20 16-32 16-13 0-24-5-33-16z" fill="#f3f6fa"/>
  <path d="M94 144c3-9 8-13 16-13 8 0 13 4 16 13v14H94z" fill="#ce8b69"/>
  <ellipse cx="110" cy="99" rx="34" ry="42" fill="#e3b290"/>
  <path d="M74 92c2-36 19-58 37-58s35 22 37 58l-10 4c-5-20-14-33-27-39-13 6-22 19-27 39z" fill="#251916"/>
  <path d="M73 108c4 28 15 49 30 63l-7 19c-22-10-34-35-35-66z" fill="#251916"/>
  <path d="M147 108c-4 28-15 49-30 63l7 19c22-10 34-35 35-66z" fill="#251916"/>
  <path d="M78 59c10-12 21-18 33-18 13 0 24 6 34 18" fill="none" stroke="#ffffff" stroke-width="8" stroke-linecap="round"/>
  <ellipse cx="92" cy="121" rx="10" ry="7" fill="#ef9c7f" opacity="0.14"/>
  <ellipse cx="128" cy="121" rx="10" ry="7" fill="#ef9c7f" opacity="0.14"/>
  <path d="M92 89c4-3 9-3 13-1M116 88c4-2 9-2 13 1" fill="none" stroke="#1a100e" stroke-width="2.4" stroke-linecap="round"/>
  <circle cx="94" cy="102" r="3.2" fill="#2f211d"/>
  <circle cx="126" cy="102" r="3.2" fill="#2f211d"/>
  <circle cx="95.2" cy="100.9" r="0.9" fill="#ffffff" opacity="0.9"/>
  <circle cx="127.2" cy="100.9" r="0.9" fill="#ffffff" opacity="0.9"/>
  <path d="M109 106c1 5 1 10 0 14" fill="none" stroke="#cb8d6c" stroke-width="2.1" stroke-linecap="round"/>
  <path d="M95 123c5 5 11 7 15 7 6 0 11-2 15-7" fill="none" stroke="#a45f4a" stroke-width="3.2" stroke-linecap="round"/>
</svg>
