<svg xmlns="http://www.w3.org/2000/svg" viewBox="0 0 220 260" role="img" aria-labelledby="title desc">
  <title id="title">Grandpa portrait</title>
  <desc id="desc">Generic illustrated portrait of grandpa with a balding gray hairstyle, a blue sweater, and a calm smile.</desc>
  <defs>
    <linearGradient id="bg" x1="0" y1="0" x2="0" y2="1">
      <stop offset="0" stop-color="#3b4e67"/>
      <stop offset="1" stop-color="#c8b48c"/>
    </linearGradient>
    <linearGradient id="shirt" x1="0" y1="0" x2="1" y2="1">
      <stop offset="0" stop-color="#91a3bf"/>
      <stop offset="1" stop-color="#687c97"/>
    </linearGradient>
  </defs>
  <rect width="220" height="260" rx="28" fill="#172231"/>
  <rect x="10" y="10" width="200" height="240" rx="22" fill="url(#bg)"/>
  <circle cx="176" cy="48" r="24" fill="#ffffff" opacity="0.12"/>
  <path d="M54 226c8-44 27-72 56-72 29 0 48 28 56 72z" fill="#38475d" opacity="0.78"/>
  <path d="M62 171c12-18 28-27 48-27s36 9 48 27l-10 55H72z" fill="url(#shirt)"/>
  <path d="M82 178h56" stroke="#b9c7dc" stroke-width="6" stroke-linecap="round"/>
  <path d="M92 144c3-9 8-13 16-13 8 0 13 4 16 13v14H92z" fill="#d6a486"/>
  <ellipse cx="110" cy="97" rx="33" ry="41" fill="#f0c9ab"/>
  <path d="M78 87c2-18 14-29 27-29 13 0 25 11 27 28l-7 4c-5-9-11-15-20-18-9 3-16 9-20 18z" fill="#d8d3cd"/>
  <path d="M82 73c6-8 15-12 28-12 11 0 20 4 27 12" fill="none" stroke="#e9e5e0" stroke-width="6" stroke-linecap="round"/>
  <ellipse cx="93" cy="121" rx="9" ry="6.5" fill="#e8b69e" opacity="0.1"/>
  <ellipse cx="127" cy="121" rx="9" ry="6.5" fill="#e8b69e" opacity="0.1"/>
  <path d="M93 88c3-2 7-2 10 0M117 88c3-2 7-2 10 0" fill="none" stroke="#30221c" stroke-width="2.1" stroke-linecap="round"/>
  <circle cx="95" cy="101" r="3" fill="#35261f"/>
  <circle cx="123" cy="101" r="3" fill="#35261f"/>
  <circle cx="96.1" cy="99.9" r="0.8" fill="#ffffff" opacity="0.88"/>
  <circle cx="124.1" cy="99.9" r="0.8" fill="#ffffff" opacity="0.88"/>
  <path d="M109 105c1 4 1 9 0 13" fill="none" stroke="#d4a384" stroke-width="2" stroke-linecap="round"/>
  <path d="M98 123c4 3 8 4 12 4 4 0 8-1 12-4" fill="none" stroke="#a0604a" stroke-width="2.8" stroke-linecap="round"/>
</svg>
