<svg xmlns="http://www.w3.org/2000/svg" viewBox="0 0 220 260" role="img" aria-labelledby="title desc">
  <title id="title">Grandma portrait</title>
  <desc id="desc">Generic illustrated portrait of grandma with short silver hair, a coral cardigan, and a warm smile.</desc>
  <defs>
    <linearGradient id="bg" x1="0" y1="0" x2="0" y2="1">
      <stop offset="0" stop-color="#6c5b42"/>
      <stop offset="1" stop-color="#d9935b"/>
    </linearGradient>
    <linearGradient id="shirt" x1="0" y1="0" x2="1" y2="1">
      <stop offset="0" stop-color="#f28d68"/>
      <stop offset="1" stop-color="#d95e4d"/>
    </linearGradient>
  </defs>
  <rect width="220" height="260" rx="28" fill="#261d17"/>
  <rect x="10" y="10" width="200" height="240" rx="22" fill="url(#bg)"/>
  <circle cx="46" cy="48" r="24" fill="#ffffff" opacity="0.12"/>
  <path d="M54 226c8-44 27-72 56-72 29 0 48 28 56 72z" fill="#8b4a3f" opacity="0.72"/>
  <path d="M62 171c12-18 28-27 48-27s36 9 48 27l-10 55H72z" fill="url(#shirt)"/>
  <path d="M94 144c3-9 8-13 16-13 8 0 13 4 16 13v14H94z" fill="#d1a085"/>
  <ellipse cx="110" cy="98" rx="34" ry="41" fill="#efc7ae"/>
  <path d="M76 89c2-28 17-46 34-46 18 0 33 18 36 45l-8 4c-6-14-15-23-28-28-12 5-22 14-28 29z" fill="#d3cec9"/>
  <path d="M78 93c10 10 20 15 32 15 12 0 22-5 32-15l7 8c-10 14-23 21-39 21-15 0-28-7-39-21z" fill="#c2bcb6"/>
  <path d="M81 72c7-8 16-12 29-12 11 0 20 4 28 12" fill="none" stroke="#ebe7e2" stroke-width="7" stroke-linecap="round"/>
  <ellipse cx="93" cy="121" rx="10" ry="7" fill="#efaa95" opacity="0.12"/>
  <ellipse cx="127" cy="121" rx="10" ry="7" fill="#efaa95" opacity="0.12"/>
  <path d="M93 88c4-2 8-2 11 0M116 88c4-2 8-2 11 0" fill="none" stroke="#34231d" stroke-width="2.1" stroke-linecap="round"/>
  <circle cx="95" cy="101" r="3" fill="#35261f"/>
  <circle cx="123" cy="101" r="3" fill="#35261f"/>
  <circle cx="96.1" cy="99.9" r="0.8" fill="#ffffff" opacity="0.88"/>
  <circle cx="124.1" cy="99.9" r="0.8" fill="#ffffff" opacity="0.88"/>
  <path d="M109 105c1 4 1 9 0 13" fill="none" stroke="#d39f82" stroke-width="2" stroke-linecap="round"/>
  <path d="M96 123c4 4 9 5 14 5s10-1 14-5" fill="none" stroke="#a1614d" stroke-width="3" stroke-linecap="round"/>
</svg>
