<svg xmlns="http://www.w3.org/2000/svg" viewBox="0 0 220 260" role="img" aria-labelledby="title desc">
  <title id="title">Liam portrait</title>
  <desc id="desc">Stylized portrait of Liam with a narrower face, side-swept hair, and a techy zip hoodie silhouette.</desc>
  <defs>
    <linearGradient id="bg" x1="0" y1="0" x2="0" y2="1">
      <stop offset="0" stop-color="#0f192c"/>
      <stop offset="0.58" stop-color="#33465d"/>
      <stop offset="1" stop-color="#6bceb8"/>
    </linearGradient>
    <linearGradient id="hoodie" x1="0" y1="0" x2="1" y2="1">
      <stop offset="0" stop-color="#33465d"/>
      <stop offset="1" stop-color="#1f2c3f"/>
    </linearGradient>
  </defs>
  <rect width="220" height="260" rx="28" fill="#0f1726"/>
  <rect x="10" y="10" width="200" height="240" rx="22" fill="url(#bg)"/>
  <circle cx="172" cy="54" r="24" fill="#8df0e7" opacity="0.38"/>
  <path d="M26 39h50M34 55h36M143 43h32M151 59h27" stroke="#7ce2cf" stroke-width="3" stroke-linecap="round" opacity="0.74"/>
  <path d="M26 216c29-24 61-36 96-36 38 0 65 10 84 28v42H26z" fill="#203042" opacity="0.9"/>
  <path d="M50 226c10-40 26-65 60-79 33 14 49 39 59 79z" fill="#1b2938" opacity="0.88"/>
  <path d="M62 226c4-25 9-44 22-58 7-8 15-12 26-12 11 0 19 4 26 12 13 14 19 33 22 58z" fill="#162231"/>
  <path d="M61 175c13-16 29-24 49-24 20 0 36 8 48 24l-8 49H69z" fill="url(#hoodie)"/>
  <path d="M84 169c7-8 15-12 26-12 11 0 19 4 26 12v55H84z" fill="#7ce2cf" opacity="0.14"/>
  <path d="M100 151h20v73h-20z" fill="#7ce2cf" opacity="0.08"/>
  <path d="M110 153v71" stroke="#7ce2cf" stroke-width="3" stroke-linecap="round"/>
  <path d="M94 175c-4 7-7 14-9 23l10 3c2-9 5-16 9-22z" fill="#2a3a4e"/>
  <path d="M126 175c4 7 7 14 9 23l-10 3c-2-9-5-16-9-22z" fill="#2a3a4e"/>
  <path d="M88 194h44" stroke="#172433" stroke-width="3" stroke-linecap="round" opacity="0.55"/>
  <path d="M98 145c2-8 7-12 13-12 7 0 11 4 13 12v12H98z" fill="#d59b81"/>
  <ellipse cx="85" cy="104" rx="5.4" ry="8.4" fill="#f0c8a9"/>
  <ellipse cx="136" cy="104" rx="5.4" ry="8.4" fill="#f0c8a9"/>
  <path d="M83 95c0-24 12-40 28-40 18 0 28 16 28 40 0 22-11 39-28 47-17-8-28-25-28-47z" fill="#f0c8a9"/>
  <path d="M78 96c4-30 20-47 37-47 21 0 38 18 41 45l-10 4c-5-15-16-25-31-25-14 0-25 9-32 23z" fill="#5c4a39"/>
  <path d="M81 82c11-10 22-14 33-14 10 0 18 3 26 10" fill="none" stroke="#6f5b49" stroke-width="7.4" stroke-linecap="round"/>
  <path d="M80 87c14-2 26-8 35-17l9 4c-8 10-19 17-32 19-6 1-12 0-18-1z" fill="#5c4a39"/>
  <ellipse cx="92" cy="121" rx="9" ry="6.5" fill="#efb295" opacity="0.12"/>
  <ellipse cx="127" cy="121" rx="9" ry="6.5" fill="#efb295" opacity="0.12"/>
  <ellipse cx="96" cy="100" rx="5.8" ry="4.9" fill="#fffdfc"/>
  <ellipse cx="123" cy="100" rx="5.8" ry="4.9" fill="#fffdfc"/>
  <circle cx="96" cy="100" r="3" fill="#2f241d"/>
  <circle cx="123" cy="100" r="3" fill="#2f241d"/>
  <circle cx="97.5" cy="98.8" r="1.05" fill="#ffffff" opacity="0.9"/>
  <circle cx="124.5" cy="98.8" r="1.05" fill="#ffffff" opacity="0.9"/>
  <path d="M90 88c3-2 6-3 10-2M116 88c3-1 6 0 9 2" fill="none" stroke="#261917" stroke-width="2.1" stroke-linecap="round"/>
  <path d="M108 104c1 7 2 11 1 17" fill="none" stroke="#d59b81" stroke-width="2.3" stroke-linecap="round"/>
  <path d="M97 120c5 4 12 4 19 0" fill="none" stroke="#a56047" stroke-width="3.4" stroke-linecap="round"/>
  <path d="M91 149c5 6 11 10 19 10 9 0 15-3 21-10" fill="none" stroke="#d6a287" stroke-width="4.1" stroke-linecap="round"/>
</svg>
