<svg xmlns="http://www.w3.org/2000/svg" viewBox="0 0 220 260" role="img" aria-labelledby="title desc">
  <title id="title">Liam portrait</title>
  <desc id="desc">Generic illustrated portrait of Liam as a fourteen year old boy with dark hair and a zip hoodie.</desc>
  <defs>
    <linearGradient id="bg" x1="0" y1="0" x2="0" y2="1">
      <stop offset="0" stop-color="#223042"/>
      <stop offset="1" stop-color="#5d7288"/>
    </linearGradient>
    <linearGradient id="shirt" x1="0" y1="0" x2="1" y2="1">
      <stop offset="0" stop-color="#435772"/>
      <stop offset="1" stop-color="#1f2c3f"/>
    </linearGradient>
  </defs>
  <rect width="220" height="260" rx="28" fill="#101a28"/>
  <rect x="10" y="10" width="200" height="240" rx="22" fill="url(#bg)"/>
  <circle cx="170" cy="48" r="24" fill="#ffffff" opacity="0.1"/>
  <path d="M54 226c8-44 27-72 56-72 29 0 48 28 56 72z" fill="#16202d" opacity="0.8"/>
  <path d="M62 171c12-18 28-27 48-27s36 9 48 27l-10 55H72z" fill="url(#shirt)"/>
  <path d="M89 171c5 6 11 8 21 8 9 0 15-2 21-8l7 8c-7 8-16 12-28 12-13 0-22-4-29-12z" fill="#7ce2cf"/>
  <path d="M94 144c3-9 8-13 16-13 8 0 13 4 16 13v14H94z" fill="#cc8c69"/>
  <ellipse cx="110" cy="99" rx="33" ry="40" fill="#e7c09f"/>
  <path d="M78 88c2-33 17-54 34-54 18 0 35 19 37 49l-8 5c-6-14-15-23-26-28-13 2-24 11-31 28z" fill="#5a4637"/>
  <path d="M86 70c7-8 15-12 26-12 9 0 17 3 23 10" fill="none" stroke="#6c5848" stroke-width="7" stroke-linecap="round"/>
  <ellipse cx="92" cy="121" rx="9" ry="6.5" fill="#efb198" opacity="0.12"/>
  <ellipse cx="128" cy="121" rx="9" ry="6.5" fill="#efb198" opacity="0.12"/>
  <path d="M93 89c3-2 7-2 10 0M117 89c3-2 7-2 10 0" fill="none" stroke="#281b16" stroke-width="2.1" stroke-linecap="round"/>
  <circle cx="95" cy="102" r="2.9" fill="#2f241d"/>
  <circle cx="123" cy="102" r="2.9" fill="#2f241d"/>
  <circle cx="96.1" cy="100.9" r="0.8" fill="#ffffff" opacity="0.88"/>
  <circle cx="124.1" cy="100.9" r="0.8" fill="#ffffff" opacity="0.88"/>
  <path d="M109 106c1 4 1 9 0 13" fill="none" stroke="#ca9270" stroke-width="2" stroke-linecap="round"/>
  <path d="M97 124c4 3 8 4 13 4 5 0 9-1 13-4" fill="none" stroke="#9b5f4c" stroke-width="2.8" stroke-linecap="round"/>
</svg>
