<svg xmlns="http://www.w3.org/2000/svg" viewBox="0 0 160 160" role="img" aria-labelledby="title desc">
  <title id="title">Liam portrait</title>
  <desc id="desc">A portrait inspired by the family photo with a navy vest and warm plaid shirt.</desc>
  <defs>
    <linearGradient id="sky" x1="0" y1="0" x2="0" y2="1">
      <stop offset="0" stop-color="#92a17c"/>
      <stop offset="0.64" stop-color="#c59652"/>
      <stop offset="1" stop-color="#6e5c42"/>
    </linearGradient>
  </defs>
  <rect width="160" height="160" rx="18" fill="#2d352b"/>
  <rect x="8" y="8" width="144" height="144" rx="14" fill="url(#sky)"/>
  <circle cx="40" cy="42" r="20" fill="#90a05e" opacity="0.45"/>
  <circle cx="118" cy="39" r="24" fill="#d8a04d" opacity="0.52"/>
  <rect x="8" y="118" width="144" height="34" fill="#6f7f49"/>
  <path d="M32 146c7-30 24-48 48-48 27 0 44 18 48 48z" fill="#36485a"/>
  <path d="M52 103h56l6 43H46z" fill="#223443"/>
  <path d="M58 103h44l4 39H54z" fill="#c58b55"/>
  <path d="M58 113h44" stroke="#f0d7b8" stroke-width="4"/>
  <path d="M58 123h44" stroke="#88a0bf" stroke-width="4"/>
  <circle cx="80" cy="61" r="27" fill="#f0c8aa"/>
  <path d="M54 59c3-18 15-31 28-31 17 0 28 11 31 29l-8 2c-4-11-12-18-23-18-11 0-18 6-21 20z" fill="#7b5a3f"/>
  <path d="M58 48c7-8 16-12 25-12 9 0 17 3 24 11" fill="none" stroke="#8b6a4d" stroke-width="8" stroke-linecap="round"/>
  <circle cx="70" cy="61" r="3.3" fill="#33251e"/>
  <circle cx="91" cy="61" r="3.3" fill="#33251e"/>
  <path d="M71 76c5 4 12 4 16 0" fill="none" stroke="#9f6047" stroke-width="3.2" stroke-linecap="round"/>
  <path d="M63 106c4 5 10 9 17 9 7 0 13-3 18-9" fill="none" stroke="#ddb99f" stroke-width="4" stroke-linecap="round"/>
</svg>
