<svg xmlns="http://www.w3.org/2000/svg" viewBox="0 0 220 260" role="img" aria-labelledby="title desc">
  <title id="title">Tim portrait</title>
  <desc id="desc">Stylized portrait of Tim with a square face, cropped brown hair, beard, and streamlined runner gear.</desc>
  <defs>
    <linearGradient id="bg" x1="0" y1="0" x2="0" y2="1">
      <stop offset="0" stop-color="#1c2e48"/>
      <stop offset="0.6" stop-color="#556a7c"/>
      <stop offset="1" stop-color="#f2b87c"/>
    </linearGradient>
    <linearGradient id="kit" x1="0" y1="0" x2="1" y2="1">
      <stop offset="0" stop-color="#5e7588"/>
      <stop offset="1" stop-color="#273544"/>
    </linearGradient>
  </defs>
  <rect width="220" height="260" rx="28" fill="#14202d"/>
  <rect x="10" y="10" width="200" height="240" rx="22" fill="url(#bg)"/>
  <circle cx="176" cy="54" r="26" fill="#ffe0b1" opacity="0.7"/>
  <path d="M18 216c31-24 66-36 104-36 40 0 68 10 83 26v44H18z" fill="#2a3d54" opacity="0.92"/>
  <path d="M48 226c11-42 29-68 61-82 33 14 50 40 60 82z" fill="#22303f" opacity="0.86"/>
  <path d="M61 226c3-27 9-47 22-61 7-8 15-12 26-12 10 0 18 4 25 12 13 14 19 34 22 61z" fill="#1b2736"/>
  <path d="M62 172c12-16 28-24 48-24 20 0 36 8 48 24l-8 52H70z" fill="url(#kit)"/>
  <path d="M79 171c11 11 20 15 31 15 12 0 22-4 32-15l8 10c-12 13-25 19-40 19-16 0-29-6-40-19z" fill="#f5f2ec"/>
  <path d="M76 171h17l40 53h-20z" fill="#ff844d" opacity="0.9"/>
  <path d="M67 178c-5 10-9 21-12 34l14 4c3-14 7-24 12-32z" fill="#38495c"/>
  <path d="M153 178c6 10 10 21 12 34l-14 4c-3-14-7-24-12-32z" fill="#38495c"/>
  <path d="M97 144c2-8 7-12 13-12 7 0 11 4 13 12v12H97z" fill="#d49a7a"/>
  <ellipse cx="84" cy="103" rx="6" ry="9" fill="#efc4a2"/>
  <ellipse cx="136" cy="103" rx="6" ry="9" fill="#efc4a2"/>
  <path d="M82 80c0-17 13-29 28-29 18 0 30 12 30 29v30c0 23-12 40-30 50-18-10-28-27-28-50z" fill="#efc4a2"/>
  <path d="M74 92c5-33 21-52 39-52 21 0 38 19 42 51l-12 4c-5-17-16-31-31-31-13 0-25 11-31 31z" fill="#6a4a34"/>
  <path d="M80 84c6-7 17-12 30-12 14 0 24 4 31 12" fill="none" stroke="#7a5942" stroke-width="8" stroke-linecap="round"/>
  <path d="M88 120c8 12 14 18 22 18 10 0 17-6 23-18l10 7c-9 18-21 28-34 28-14 0-26-10-34-29z" fill="#6a4a34"/>
  <ellipse cx="92" cy="121" rx="9" ry="7" fill="#f1b194" opacity="0.12"/>
  <ellipse cx="128" cy="121" rx="9" ry="7" fill="#f1b194" opacity="0.12"/>
  <ellipse cx="96" cy="99" rx="6.1" ry="5" fill="#fffdfb"/>
  <ellipse cx="124" cy="99" rx="6.1" ry="5" fill="#fffdfb"/>
  <circle cx="96" cy="99" r="3.1" fill="#30211b"/>
  <circle cx="124" cy="99" r="3.1" fill="#30211b"/>
  <circle cx="97.5" cy="97.8" r="1.1" fill="#ffffff" opacity="0.9"/>
  <circle cx="125.5" cy="97.8" r="1.1" fill="#ffffff" opacity="0.9"/>
  <path d="M89 86c3-2 7-3 11-2M118 85c3-1 7 0 11 2" fill="none" stroke="#271815" stroke-width="2.4" stroke-linecap="round"/>
  <path d="M109 103c1 7 2 12 1 18" fill="none" stroke="#d39b80" stroke-width="2.4" stroke-linecap="round"/>
  <path d="M98 120c6 4 13 4 20 0" fill="none" stroke="#9e5e49" stroke-width="3.5" stroke-linecap="round"/>
  <path d="M99 138c4 2 11 2 19 0" fill="none" stroke="#4a2e24" stroke-width="4.5" stroke-linecap="round"/>
  <path d="M90 150c5 6 12 10 20 10 10 0 17-3 23-10" fill="none" stroke="#d3a184" stroke-width="4.2" stroke-linecap="round"/>
</svg>
