<svg xmlns="http://www.w3.org/2000/svg" viewBox="0 0 220 260" role="img" aria-labelledby="title desc">
  <title id="title">Tim portrait</title>
  <desc id="desc">Generic illustrated portrait of Tim as a dad with short brown hair, a trimmed beard, and a blue running top.</desc>
  <defs>
    <linearGradient id="bg" x1="0" y1="0" x2="0" y2="1">
      <stop offset="0" stop-color="#1d3147"/>
      <stop offset="1" stop-color="#879bb6"/>
    </linearGradient>
    <linearGradient id="shirt" x1="0" y1="0" x2="1" y2="1">
      <stop offset="0" stop-color="#6c8297"/>
      <stop offset="1" stop-color="#273544"/>
    </linearGradient>
  </defs>
  <rect width="220" height="260" rx="28" fill="#111e2c"/>
  <rect x="10" y="10" width="200" height="240" rx="22" fill="url(#bg)"/>
  <circle cx="172" cy="46" r="26" fill="#ffffff" opacity="0.12"/>
  <path d="M54 226c8-44 27-72 56-72 29 0 48 28 56 72z" fill="#1f2b39" opacity="0.8"/>
  <path d="M62 171c12-18 28-27 48-27s36 9 48 27l-10 55H72z" fill="url(#shirt)"/>
  <path d="M78 170h20l36 56h-20z" fill="#ff844d" opacity="0.92"/>
  <path d="M94 144c3-9 8-13 16-13 8 0 13 4 16 13v14H94z" fill="#d09a79"/>
  <ellipse cx="110" cy="96" rx="32" ry="41" fill="#ecc8ad"/>
  <path d="M79 85c2-32 18-53 34-53 18 0 34 20 36 52l-9 4c-5-18-13-29-25-34-12 5-21 16-27 35z" fill="#6a523f"/>
  <path d="M83 76c10-10 20-15 31-15 10 0 19 4 27 12" fill="none" stroke="#816651" stroke-width="7" stroke-linecap="round"/>
  <path d="M94 119c4 6 9 10 16 10s12-4 16-10l7 5c-5 11-13 16-23 16-10 0-18-5-23-16z" fill="#6a523f"/>
  <ellipse cx="94" cy="119" rx="9" ry="6.5" fill="#e9b39b" opacity="0.12"/>
  <ellipse cx="126" cy="119" rx="9" ry="6.5" fill="#e9b39b" opacity="0.12"/>
  <path d="M92 87c4-2 8-2 11 0M117 87c3-2 7-2 10 0" fill="none" stroke="#2b1b16" stroke-width="2.2" stroke-linecap="round"/>
  <circle cx="95" cy="100" r="3" fill="#30211b"/>
  <circle cx="123" cy="100" r="3" fill="#30211b"/>
  <circle cx="96.2" cy="98.9" r="0.9" fill="#ffffff" opacity="0.88"/>
  <circle cx="124.2" cy="98.9" r="0.9" fill="#ffffff" opacity="0.88"/>
  <path d="M109 104c1 5 1 10 0 14" fill="none" stroke="#cb9270" stroke-width="2" stroke-linecap="round"/>
  <path d="M98 121c4 3 8 4 12 4 5 0 9-1 12-4" fill="none" stroke="#9c5e49" stroke-width="2.8" stroke-linecap="round"/>
</svg>
